<svg width="27" height="26" viewBox="0 0 27 26" fill="none" xmlns="http://www.w3.org/2000/svg">
<path d="M21.4291 6.53H5.54906C2.91906 6.53 0.789062 8.67001 0.789062 11.29V20.82C0.789062 23.45 2.92906 25.58 5.54906 25.58H21.4291C24.0591 25.58 26.1891 23.44 26.1891 20.82V11.29C26.1891 8.66001 24.0491 6.53 21.4291 6.53ZM25.1391 20.82C25.1391 22.86 23.4791 24.53 21.4291 24.53H5.54906C3.50906 24.53 1.83906 22.87 1.83906 20.82V11.29C1.83906 9.25001 3.49906 7.57999 5.54906 7.57999H21.4291C23.4691 7.57999 25.1391 9.24001 25.1391 11.29V20.82ZM1.43906 4.95999C2.33906 3.92999 3.63906 3.35001 5.01906 3.35001H21.9591C23.3291 3.35001 24.6291 3.93999 25.5391 4.95999C25.7291 5.17999 25.7091 5.50999 25.4991 5.70999C25.3891 5.78999 25.2791 5.84 25.1491 5.84C24.9991 5.84 24.8491 5.78 24.7491 5.66C24.0491 4.87 23.0291 4.39999 21.9791 4.39999H5.02906C3.96906 4.39999 2.94906 4.86 2.25906 5.66C2.06906 5.88 1.72906 5.90001 1.50906 5.70001C1.28906 5.51001 1.26906 5.17001 1.46906 4.95001H1.45906L1.43906 4.95999ZM1.43906 1.79001C2.34906 0.770009 3.64906 0.179993 5.01906 0.179993H21.9591C23.3291 0.179993 24.6291 0.770009 25.5391 1.79001C25.7291 2.01001 25.7091 2.34001 25.4991 2.54001C25.3891 2.62001 25.2791 2.67001 25.1491 2.67001C24.9991 2.67001 24.8491 2.60999 24.7491 2.48999C24.0491 1.69999 23.0291 1.23001 21.9791 1.23001H5.02906C3.96906 1.23001 2.94906 1.68999 2.25906 2.48999C2.06906 2.70999 1.72906 2.73 1.50906 2.53C1.28906 2.34 1.26906 2 1.46906 1.78H1.45906L1.43906 1.79001ZM13.4891 10.78C8.73906 10.78 5.01906 13.11 5.01906 16.07C5.01906 19.03 8.73906 21.36 13.4891 21.36C18.2391 21.36 21.9591 19.03 21.9591 16.07C21.9591 13.11 18.2391 10.78 13.4891 10.78ZM13.4891 20.31C9.47906 20.31 6.07906 18.37 6.07906 16.07C6.07906 13.77 9.47906 11.83 13.4891 11.83C17.4991 11.83 20.8991 13.77 20.8991 16.07C20.8991 18.37 17.4991 20.31 13.4891 20.31ZM15.0791 16.07C15.0791 16.65 14.3691 17.13 13.4891 17.13C12.6091 17.13 11.8991 16.65 11.8991 16.07C11.8991 15.49 12.6091 15.01 13.4891 15.01C14.3691 15.01 15.0791 15.49 15.0791 16.07Z" fill="#B60A31"/>
</svg>
