<svg width="20" height="19" viewBox="0 0 20 19" fill="none" xmlns="http://www.w3.org/2000/svg">
<path d="M16.53 8.2H13.6801C13.4901 8.2 13.31 8.16 13.14 8.07L10.59 6.8C10.31 6.66 9.99994 6.59 9.68994 6.59H8.45996C6.89996 6.59 5.63 7.86 5.63 9.42V15.88C5.63 17.44 6.89996 18.71 8.45996 18.71H16.53C18.09 18.71 19.36 17.44 19.36 15.88V11.04C19.36 9.48 18.09 8.21 16.53 8.21V8.2ZM18.55 15.87C18.55 16.98 17.64 17.89 16.53 17.89H8.45996C7.34996 17.89 6.43994 16.98 6.43994 15.87V9.41C6.43994 8.3 7.34996 7.39 8.45996 7.39H9.68994C9.87994 7.39 10.06 7.43 10.23 7.52L12.78 8.79C13.06 8.93 13.3701 9 13.6801 9H16.53C17.64 9 18.55 9.91 18.55 11.02V15.86V15.87ZM19.36 6.18V6.99C19.36 7.21 19.18 7.39 18.96 7.39C18.74 7.39 18.5601 7.21 18.5601 6.99V6.18C18.5601 4.62 17.29 3.35 15.73 3.35H10.0601C9.75006 3.35 9.44003 3.28 9.16003 3.14L6.60999 1.87C6.43999 1.79 6.25995 1.74 6.06995 1.74H3.63C2.07 1.74 0.800049 3.01 0.800049 4.57V15.07C0.800049 16.63 2.07 17.9 3.63 17.9C3.85 17.9 4.03003 18.08 4.03003 18.3C4.03003 18.52 3.85 18.7 3.63 18.7C1.63 18.7 0 17.07 0 15.07V4.57C0 2.57 1.63 0.940002 3.63 0.940002H6.06995C6.37995 0.940002 6.68997 1.01 6.96997 1.15L9.52002 2.42C9.69002 2.5 9.87006 2.55 10.0601 2.55H15.73C17.73 2.55 19.36 4.18 19.36 6.18Z" fill="white"/>
</svg>
