<svg width="19" height="19" viewBox="0 0 19 19" fill="none" xmlns="http://www.w3.org/2000/svg">
<path d="M5.91028 10.46C7.77028 10.46 9.28033 8.94997 9.28033 7.08997C9.28033 5.22997 7.77028 3.71997 5.91028 3.71997C4.05028 3.71997 2.54028 5.22997 2.54028 7.08997C2.54028 8.94997 4.05028 10.46 5.91028 10.46ZM5.91028 4.46997C7.35028 4.46997 8.53033 5.63997 8.53033 7.08997C8.53033 8.53997 7.36028 9.70997 5.91028 9.70997C4.46028 9.70997 3.29028 8.53997 3.29028 7.08997C3.29028 5.63997 4.46028 4.46997 5.91028 4.46997ZM11.5203 17.56V18.31C11.5203 18.52 11.3503 18.68 11.1503 18.68C10.9503 18.68 10.7803 18.51 10.7803 18.31V17.56C10.7803 14.88 8.60029 12.7 5.92029 12.7C3.24029 12.7 1.0603 14.88 1.0603 17.56V18.31C1.0603 18.52 0.890308 18.68 0.690308 18.68C0.490308 18.68 0.320312 18.51 0.320312 18.31V17.56C0.320312 14.47 2.8403 11.95 5.9303 11.95C9.0203 11.95 11.5403 14.47 11.5403 17.56H11.5203ZM18.2503 14.09V14.57C18.2503 14.78 18.0803 14.94 17.8803 14.94C17.6803 14.94 17.5103 14.77 17.5103 14.57V14.09C17.5103 11.67 15.5403 9.69997 13.1203 9.69997C12.1003 9.69997 11.2603 9.92997 10.6103 10.38C10.4403 10.5 10.2103 10.46 10.0903 10.29C9.97033 10.12 10.0103 9.88997 10.1803 9.76997C10.9603 9.22997 11.9403 8.94997 13.1203 8.94997C15.9503 8.94997 18.2603 11.25 18.2603 14.09H18.2503ZM13.3903 7.45997C15.2503 7.45997 16.7603 5.94997 16.7603 4.08997C16.7603 2.22997 15.2503 0.719971 13.3903 0.719971C11.5303 0.719971 10.0203 2.22997 10.0203 4.08997C10.0203 5.94997 11.5303 7.45997 13.3903 7.45997ZM13.3903 1.46997C14.8303 1.46997 16.0103 2.63997 16.0103 4.08997C16.0103 5.53997 14.8403 6.70997 13.3903 6.70997C11.9403 6.70997 10.7703 5.53997 10.7703 4.08997C10.7703 2.63997 11.9403 1.46997 13.3903 1.46997Z" fill="white"/>
</svg>
