<svg width="34" height="34" viewBox="0 0 34 34" fill="none" xmlns="http://www.w3.org/2000/svg">
<path d="M32.3217 13.0979L22.1317 2.90786C19.502 0.288772 15.2606 0.288772 12.6309 2.90786L2.44086 13.0979C1.67741 13.8507 1.25326 14.8793 1.26387 15.9503V29.1411C1.26387 31.3679 3.06648 33.1705 5.29323 33.1705H29.48C31.7067 33.1705 33.5093 31.3679 33.5093 29.1411V15.9503C33.5093 14.8793 33.0852 13.8507 32.3217 13.0979ZM22.6513 31.4527H12.1219V25.3662C12.1219 22.8638 14.1366 20.6264 16.8723 20.3932C20.011 20.1175 22.6619 22.3654 22.6619 25.1648V31.4527H22.6513ZM31.7916 28.876C31.7916 30.2969 30.6358 31.4421 29.2255 31.4421H24.5917V26.0767C24.5917 22.1321 21.5485 18.6966 17.6146 18.5693C13.5322 18.4421 10.1921 21.7186 10.1921 25.7692V31.4421H5.54771C4.12683 31.4421 2.98165 30.2863 2.98165 28.876V15.8654C2.98165 15.4837 3.1301 15.1126 3.40579 14.8475L14.3381 3.9258C16.024 2.23983 18.7598 2.23983 20.4563 3.9258L31.3886 14.8581C31.6537 15.1232 31.8128 15.4943 31.8128 15.876V28.876H31.7916Z" fill="#B60A31"/>
</svg>
