<svg width="27" height="24" viewBox="0 0 27 24" fill="none" xmlns="http://www.w3.org/2000/svg">
<path d="M19.3104 0.019989C16.8804 0.059989 14.6604 1.39001 13.4904 3.51001C12.3204 1.39001 10.0904 0.049989 7.67042 0.019989C3.71042 0.189989 0.640427 3.53001 0.790427 7.48001C0.790427 14.65 12.3904 22.93 12.8804 23.28L13.4904 23.71L14.1004 23.28C14.5904 22.93 26.1904 14.65 26.1904 7.48001C26.3404 3.52001 23.2704 0.189989 19.3104 0.019989ZM13.4904 22.37C9.77043 19.59 1.93043 12.7 1.93043 7.57001C1.85043 6.06001 2.51042 4.24 3.44042 3.19C5.19042 1.22 8.14043 0.9 10.4004 2.25C11.4104 2.86 12.1104 3.78 12.3004 5.03C12.3904 5.62 12.8904 6.06 13.4904 6.06C14.0904 6.06 14.5904 5.61001 14.6804 5.01001C14.8804 3.76001 15.6104 2.61999 16.6204 2.01999C18.8804 0.659989 21.7904 1.21999 23.5404 3.17999C24.4704 4.21999 25.1304 6.22 25.0504 7.72C25.0504 12.85 17.2104 19.57 13.4904 22.35V22.37Z" fill="#B60A31"/>
</svg>
