<svg width="18" height="19" viewBox="0 0 18 19" fill="none" xmlns="http://www.w3.org/2000/svg">
<path d="M13.151 5.44C14.3605 5.44 15.3409 4.4595 15.3409 3.25C15.3409 2.04049 14.3605 1.06 13.151 1.06C11.9415 1.06 10.9609 2.04049 10.9609 3.25C10.9609 4.4595 11.9415 5.44 13.151 5.44Z" stroke="white" stroke-width="0.75" stroke-miterlimit="10"/>
<path d="M17.1635 12.84L15.3835 5.92999C15.1835 6.09999 14.9635 6.24999 14.7235 6.36999L16.4335 13.04C16.5635 13.49 16.4735 13.97 16.1835 14.34C15.9035 14.71 15.4635 14.93 14.9935 14.93H2.39351C1.93351 14.93 1.51346 14.73 1.22346 14.37C0.943463 14.01 0.833536 13.56 0.923536 13.13L2.57344 6.35999C3.21344 3.48999 5.70351 1.48999 8.64351 1.48999C9.12351 1.48999 9.58352 1.55999 10.0335 1.66999C10.1535 1.42999 10.3035 1.20999 10.4735 1.00999C9.88346 0.849991 9.27351 0.73999 8.64351 0.73999C5.35351 0.73999 2.56347 2.97999 1.85347 6.17999L0.203444 12.95C0.0534435 13.61 0.213507 14.3 0.643507 14.83C1.07351 15.36 1.70351 15.67 2.39351 15.67H4.99348C5.34348 17.37 6.85352 18.66 8.65352 18.66C10.4535 18.66 11.9636 17.37 12.3136 15.67H15.0035C15.7135 15.67 16.3635 15.35 16.7835 14.78C17.2135 14.22 17.3435 13.51 17.1635 12.83V12.84ZM8.65352 17.91C7.26352 17.91 6.10351 16.95 5.77351 15.67H11.5335C11.2035 16.96 10.0435 17.91 8.65352 17.91Z" fill="white"/>
</svg>
