<svg width="27" height="26" viewBox="0 0 27 26" fill="none" xmlns="http://www.w3.org/2000/svg">
<path d="M21.9593 0.0700073C20.7893 0.0700073 19.8393 1.02 19.8393 2.19V16.31C18.7893 14.81 17.0393 13.83 15.0793 13.83C11.8693 13.83 9.2593 16.44 9.2593 19.65C9.2593 22.86 11.8693 25.47 15.0793 25.47C18.2893 25.47 20.8993 22.86 20.8993 19.65V2.17999C20.8993 1.59999 21.3693 1.12 21.9593 1.12H26.1893V0.0599976H21.9593V0.0700073ZM15.0793 24.42C12.4493 24.42 10.3193 22.28 10.3193 19.66C10.3193 17.04 12.4593 14.9 15.0793 14.9C17.6993 14.9 19.8393 17.04 19.8393 19.66C19.8393 22.28 17.6993 24.42 15.0793 24.42ZM14.5493 1.13H0.789299V0.0700073H14.5493V1.13ZM14.5493 7.48001H0.789299V6.42001H14.5493V7.48001ZM9.6893 13.83H0.779297V12.77H11.1193C10.5993 13.07 10.1193 13.42 9.6793 13.83H9.6893Z" fill="#B60A31"/>
</svg>
