<svg width="27" height="26" viewBox="0 0 27 26" fill="none" xmlns="http://www.w3.org/2000/svg">
<path d="M21.4291 0.0700073C19.9691 0.0700073 18.7791 1.26 18.7791 2.72V15.17C17.7691 14.34 16.4791 13.84 15.0691 13.84C11.8591 13.84 9.24906 16.45 9.24906 19.66C9.24906 22.87 11.8591 25.48 15.0691 25.48C18.2791 25.48 20.8891 22.87 20.8891 19.66V2.72C20.8891 2.43 21.1291 2.19 21.4191 2.19H26.1791V0.0700073H21.4191H21.4291ZM14.5491 2.19H0.789062V0.0700073H14.5491V2.19ZM14.5491 8.54001H0.789062V6.42001H14.5491V8.54001ZM11.1291 12.77C10.1991 13.31 9.37906 14.03 8.73906 14.89H0.789062V12.77H11.1291Z" fill="url(#paint0_linear_523_623)"/>
<defs>
<linearGradient id="paint0_linear_523_623" x1="0.779063" y1="12.77" x2="26.1891" y2="12.77" gradientUnits="userSpaceOnUse">
<stop stop-color="#A30028"/>
<stop offset="1" stop-color="#FB2645"/>
</linearGradient>
</defs>
</svg>
