<svg width="24" height="33" viewBox="0 0 24 33" fill="none" xmlns="http://www.w3.org/2000/svg">
<path d="M12.1491 16.73C16.4991 16.73 20.0391 13.19 20.0391 8.84C20.0391 4.49 16.4991 0.950012 12.1491 0.950012C7.79906 0.950012 4.25906 4.49 4.25906 8.84C4.25906 13.19 7.79906 16.73 12.1491 16.73ZM12.1491 2.26001C15.7791 2.26001 18.7291 5.21 18.7291 8.84C18.7291 12.47 15.7791 15.42 12.1491 15.42C8.51906 15.42 5.56906 12.47 5.56906 8.84C5.56906 5.21 8.51906 2.26001 12.1491 2.26001ZM23.9891 31.21V31.87C23.9891 32.23 23.6991 32.53 23.3291 32.53C22.9591 32.53 22.6691 32.24 22.6691 31.87V31.21C22.6691 25.41 17.9491 20.68 12.1391 20.68C6.32906 20.68 1.60906 25.4 1.60906 31.21V31.87C1.60906 32.23 1.31906 32.53 0.949062 32.53C0.579062 32.53 0.289062 32.24 0.289062 31.87V31.21C0.289062 24.68 5.59906 19.37 12.1291 19.37C18.6591 19.37 23.9691 24.68 23.9691 31.21H23.9891Z" fill="#B60A31"/>
</svg>
